<svg id="Capa_1" enable-background="new 0 0 512 512" height="512" viewBox="0 0 512 512" width="512" xmlns="http://www.w3.org/2000/svg"><g><g fill="#d580ff"><path d="m152 129.279-22.721 22.721c-17.6 8.639-39.68 5.439-54.398-9.281-18.561-18.559-18.561-48.959 0-67.84 18.879-18.559 49.279-18.559 67.84 0 14.718 14.721 17.92 36.801 9.279 54.4z"/><path d="m437.119 437.119c-18.879 18.561-49.279 18.561-67.84 0-14.719-14.719-17.92-36.799-9.279-54.4l22.721-22.719c17.6-8.641 39.68-5.441 54.398 9.279 18.561 18.561 18.561 48.961 0 67.84z"/><path d="m437.119 142.719c-14.719 14.721-36.799 17.92-54.398 9.281l-22.721-22.721c-8.641-17.6-5.439-39.68 9.279-54.4 18.561-18.559 48.961-18.559 67.84 0 18.561 18.881 18.561 49.281 0 67.84z"/><path d="m142.721 437.119c-18.561 18.561-48.961 18.561-67.84 0-18.561-18.879-18.561-49.279 0-67.84 14.719-14.721 36.799-17.92 54.398-9.279l22.721 22.719c8.641 17.601 5.439 39.681-9.279 54.4z"/><path d="m304 48c0 20.799-13.439 38.719-32 45.119h-32c-18.561-6.4-32-24.32-32-45.119 0-26.561 21.439-48 48-48s48 21.439 48 48z"/><path d="m304 464c0 26.559-21.439 48-48 48s-48-21.441-48-48c0-20.801 13.439-38.721 32-45.121h32c18.561 6.4 32 24.32 32 45.121z"/><path d="m512 256c0 26.559-21.439 48-48 48-20.801 0-38.721-13.441-45.119-32v-32c6.398-18.561 24.318-32 45.119-32 26.561 0 48 21.439 48 48z"/><path d="m93.119 272c-6.398 18.559-24.318 32-45.119 32-26.561 0-48-21.441-48-48 0-26.561 21.439-48 48-48 20.801 0 38.721 13.439 45.119 32z"/></g><path d="m418.881 272v-32h-36.481c-2.881-23.361-11.84-44.48-25.6-62.08l25.92-25.92-22.72-22.721-25.92 25.92c-17.6-13.76-38.721-22.719-62.08-25.6v-36.48h-32v36.48c-23.359 2.881-44.48 11.84-62.08 25.6l-25.92-25.92-22.721 22.721 25.92 25.92c-13.76 17.6-22.719 38.719-25.6 62.08h-36.48v32h36.48c2.881 23.359 11.84 44.48 25.6 62.08l-25.92 25.92 22.721 22.719 25.92-25.92c17.6 13.76 38.721 22.721 62.08 25.602v36.479h32v-36.48c23.359-2.881 44.48-11.842 62.08-25.602l25.92 25.92 22.721-22.718-25.92-25.92c13.76-17.6 22.719-38.721 25.6-62.08zm-162.881 80c-52.801 0-96-43.201-96-96 0-52.801 43.199-96 96-96s96 43.199 96 96c0 52.799-43.199 96-96 96z" fill="#f9f"/><path d="m152 382.719-20.48 20.48-22.719-22.719 20.478-20.48c4.801 1.92 9.281 5.119 13.441 9.279s7.36 8.641 9.28 13.44z" fill="#96f"/><path d="m272 418.879v29.121h-32v-29.121c5.119-1.92 10.24-2.879 16-2.879s10.881.959 16 2.879z" fill="#96f"/><path d="m403.199 380.48-22.719 22.719-20.48-20.48c1.92-4.799 5.119-9.279 9.279-13.439s8.641-7.359 13.441-9.279z" fill="#96f"/><path d="m448 240v32h-29.119c-1.92-5.121-2.881-10.24-2.881-16s.961-10.881 2.881-16z" fill="#96f"/><path d="m403.199 131.52-20.478 20.48c-4.801-1.92-9.281-5.121-13.441-9.281s-7.359-8.639-9.279-13.439l20.48-20.48z" fill="#96f"/><path d="m272 64v29.119c-5.119 1.92-10.24 2.881-16 2.881s-10.881-.961-16-2.881v-29.119z" fill="#96f"/><path d="m96 256c0 5.76-.961 10.879-2.881 16h-29.119v-32h29.119c1.92 5.119 2.881 10.24 2.881 16z" fill="#96f"/><path d="m152 129.279c-1.92 4.801-5.119 9.279-9.279 13.439s-8.641 7.361-13.441 9.281l-20.479-20.48 22.719-22.721z" fill="#96f"/><circle cx="256" cy="256" fill="#f9f" r="64"/></g></svg>